<svg xmlns="http://www.w3.org/2000/svg" viewBox="0 0 1200 600">
  <!-- Base Background -->
  <rect width="1200" height="600" fill="#2c3e50"/>
  
  <!-- Abstract Background Pattern -->
  <g opacity="0.2">
    <path d="M0 500 Q 300 400, 600 500 T 1200 500 L 1200 600 L 0 600 Z" fill="#3498db"/>
    <path d="M0 450 Q 300 350, 600 450 T 1200 450 L 1200 600 L 0 600 Z" fill="#2980b9"/>
  </g>
  
  <!-- Building Silhouette -->
  <g opacity="0.4">
    <rect x="100" y="300" width="200" height="300" fill="#34495e"/>
    <rect x="300" y="200" width="150" height="400" fill="#34495e"/>
    <rect x="450" y="350" width="100" height="250" fill="#34495e"/>
    <rect x="550" y="250" width="180" height="350" fill="#34495e"/>
    <rect x="730" y="400" width="120" height="200" fill="#34495e"/>
    <rect x="850" y="320" width="160" height="280" fill="#34495e"/>
    <rect x="1010" y="280" width="90" height="320" fill="#34495e"/>
  </g>
  
  <!-- Windows Pattern -->
  <g opacity="0.7">
    <!-- Building 1 Windows -->
    <rect x="120" y="330" width="30" height="40" fill="#f1c40f"/>
    <rect x="170" y="330" width="30" height="40" fill="#f1c40f"/>
    <rect x="220" y="330" width="30" height="40" fill="#f1c40f"/>
    
    <rect x="120" y="390" width="30" height="40" fill="#f1c40f"/>
    <rect x="170" y="390" width="30" height="40" fill="#f1c40f"/>
    <rect x="220" y="390" width="30" height="40" fill="#f1c40f"/>
    
    <rect x="120" y="450" width="30" height="40" fill="#f1c40f"/>
    <rect x="170" y="450" width="30" height="40" fill="#f1c40f"/>
    <rect x="220" y="450" width="30" height="40" fill="#f1c40f"/>
    
    <rect x="120" y="510" width="30" height="40" fill="#f1c40f"/>
    <rect x="170" y="510" width="30" height="40" fill="#f1c40f"/>
    <rect x="220" y="510" width="30" height="40" fill="#f1c40f"/>
    
    <!-- Building 2 Windows -->
    <rect x="320" y="230" width="25" height="35" fill="#f1c40f"/>
    <rect x="360" y="230" width="25" height="35" fill="#f1c40f"/>
    <rect x="400" y="230" width="25" height="35" fill="#f1c40f"/>
    
    <rect x="320" y="290" width="25" height="35" fill="#f1c40f"/>
    <rect x="360" y="290" width="25" height="35" fill="#f1c40f"/>
    <rect x="400" y="290" width="25" height="35" fill="#f1c40f"/>
    
    <rect x="320" y="350" width="25" height="35" fill="#f1c40f"/>
    <rect x="360" y="350" width="25" height="35" fill="#f1c40f"/>
    <rect x="400" y="350" width="25" height="35" fill="#f1c40f"/>
    
    <rect x="320" y="410" width="25" height="35" fill="#f1c40f"/>
    <rect x="360" y="410" width="25" height="35" fill="#f1c40f"/>
    <rect x="400" y="410" width="25" height="35" fill="#f1c40f"/>
    
    <rect x="320" y="470" width="25" height="35" fill="#f1c40f"/>
    <rect x="360" y="470" width="25" height="35" fill="#f1c40f"/>
    <rect x="400" y="470" width="25" height="35" fill="#f1c40f"/>
    
    <rect x="320" y="530" width="25" height="35" fill="#f1c40f"/>
    <rect x="360" y="530" width="25" height="35" fill="#f1c40f"/>
    <rect x="400" y="530" width="25" height="35" fill="#f1c40f"/>
  </g>
  
  <!-- Laboratory Building in Foreground -->
  <rect x="600" y="250" width="300" height="350" fill="#34495e" opacity="0.9"/>
  
  <!-- Lab Windows -->
  <rect x="630" y="280" width="240" height="100" fill="#3498db" opacity="0.9"/>
  <line x1="750" y1="280" x2="750" y2="380" stroke="#2c3e50" stroke-width="3"/>
  <line x1="630" y1="330" x2="870" y2="330" stroke="#2c3e50" stroke-width="3"/>
  
  <!-- More Lab Windows -->
  <rect x="630" y="400" width="60" height="80" fill="#3498db" opacity="0.9"/>
  <rect x="710" y="400" width="60" height="80" fill="#3498db" opacity="0.9"/>
  <rect x="790" y="400" width="60" height="80" fill="#3498db" opacity="0.9"/>
  
  <!-- Lab Door -->
  <rect x="720" y="500" width="60" height="100" fill="#2c3e50"/>
  <rect x="730" y="510" width="40" height="60" fill="#3498db" opacity="0.5"/>
  
  <!-- Thermal Sensor Visual -->
  <g transform="translate(780, 180) scale(0.8)">
    <rect x="0" y="0" width="80" height="40" rx="5" fill="#e74c3c" opacity="0.9"/>
    <rect x="15" y="40" width="50" height="60" fill="#c0392b" opacity="0.9"/>
    <path d="M15 40 L65 40 L40 70 Z" fill="#e74c3c" opacity="0.6"/>
    
    <!-- Temperature Waves -->
    <path d="M80 20 Q 90 10, 100 20 Q 110 30, 120 20 Q 130 10, 140 20" stroke="#e74c3c" stroke-width="3" fill="none" opacity="0.7"/>
    <path d="M80 30 Q 90 20, 100 30 Q 110 40, 120 30 Q 130 20, 140 30" stroke="#e74c3c" stroke-width="2" fill="none" opacity="0.5"/>
    <path d="M80 40 Q 90 30, 100 40 Q 110 50, 120 40 Q 130 30, 140 40" stroke="#e74c3c" stroke-width="1" fill="none" opacity="0.3"/>
  </g>
  
  <!-- Gradient Overlay for Darkening Effect -->
  <rect width="1200" height="600" fill="url(#darkGradient)" opacity="0.5"/>
  <defs>
    <linearGradient id="darkGradient" x1="0%" y1="0%" x2="0%" y2="100%">
      <stop offset="0%" style="stop-color:#000000;stop-opacity:0.7"/>
      <stop offset="100%" style="stop-color:#000000;stop-opacity:0.3"/>
    </linearGradient>
  </defs>
</svg>